<svg xmlns="http://www.w3.org/2000/svg" viewBox="0 0 35.99 34.73"><defs><style>.cls-1{isolation:isolate;}.cls-2{mix-blend-mode:multiply;}.cls-3{fill:#008f4a;}</style></defs><title>recomendaciones</title><g class="cls-1"><g id="Capa_2" data-name="Capa 2"><g id="Layer_1" data-name="Layer 1"><g class="cls-2"><path class="cls-3" d="M36,7H26.36a4.42,4.42,0,0,0-6.75-5.66L17.82,3.08,16,1.29A4.42,4.42,0,0,0,9.29,7H0v8.84H3.16V34.73H33.46V15.79H36ZM20.5,2.19a3.16,3.16,0,0,1,4.46,0,3.16,3.16,0,0,1,0,4.46l-.3.3H15.74ZM10.68,6.65a3.16,3.16,0,0,1,4.47-4.46L16.93,4,14.7,6.2a3.65,3.65,0,0,0-.37.43l-.1.15-.11.16H11ZM1.26,14.53V8.21H17.68v6.31Zm16.41,1.26v7.58H4.42V15.79ZM4.42,24.63H17.68v8.84H4.42Zm14.52,8.84V24.63H32.2v8.84ZM32.2,23.37H18.94V15.79H32.2Zm2.52-8.84H18.94V8.21H34.73Zm0,0"/></g></g></g></g></svg>